# Blender v2.93.4 OBJ File: 'sidewalkRoad.blend'
# www.blender.org
o Plane
v 1.456272 0.000000 5.336147
v 1.456272 0.000000 -5.336147
v -0.834720 0.000000 5.336147
v -0.834720 0.000000 -5.336147
v -1.689859 0.061649 -5.336147
v -1.689859 0.061649 5.336147
v -0.834720 0.061649 -5.336147
v -0.834720 0.061649 5.336147
vt 0.303290 0.031781
vt 0.096513 0.995024
vt 0.096513 0.031781
vt 0.081197 -0.003150
vt 0.001083 0.996683
vt 0.001083 -0.003150
vt 0.095333 0.995555
vt 0.077905 -0.002948
vt 0.095334 -0.003083
vt 0.303290 0.995024
vt 0.081198 0.996683
vt 0.077905 0.995690
vn 0.0000 1.0000 0.0000
vn 1.0000 0.0000 0.0000
s off
f 1/1/1 4/2/1 3/3/1
f 8/4/1 5/5/1 6/6/1
f 4/7/2 8/8/2 3/9/2
f 1/1/1 2/10/1 4/2/1
f 8/4/1 7/11/1 5/5/1
f 4/7/2 7/12/2 8/8/2
